HIERARCHY
ROOT joint_0
{
	OFFSET 0.000000 0.000000 0.000000
	CHANNELS 6 Xposition Yposition Zposition Zrotation Yrotation Xrotation 
	JOINT joint_1
	{
		OFFSET 8.185791 -2.713684 100.414917
		CHANNELS 3 Zrotation Yrotation Xrotation
		JOINT joint_2
		{
			OFFSET -4.376465 -1.111145 91.934082
			CHANNELS 3 Zrotation Yrotation Xrotation
			JOINT joint_3
			{
				OFFSET -6.985840 -1.054016 91.669922
				CHANNELS 3 Zrotation Yrotation Xrotation
				JOINT joint_4
				{
					OFFSET 0.150391 -4.451904 123.526001
					CHANNELS 3 Zrotation Yrotation Xrotation
					JOINT joint_5
					{
						OFFSET 19.754150 -8.123901 80.916992
						CHANNELS 3 Zrotation Yrotation Xrotation
						End Site
						{
							OFFSET 0.000000 0.000000 0.000000
						}
					}
				}
				JOINT joint_6
				{
					OFFSET -6.477539 -28.517334 68.237061
					CHANNELS 3 Zrotation Yrotation Xrotation
					JOINT joint_7
					{
						OFFSET -20.564453 -115.426208 -21.139038
						CHANNELS 3 Zrotation Yrotation Xrotation
						JOINT joint_8
						{
							OFFSET 18.981934 -19.826172 -267.898926
							CHANNELS 3 Zrotation Yrotation Xrotation
							JOINT joint_9
							{
								OFFSET 11.562744 -19.325867 -235.478027
								CHANNELS 3 Zrotation Yrotation Xrotation
								End Site
								{
									OFFSET 0.000000 0.000000 0.000000
								}
							}
						}
					}
				}
				JOINT joint_10
				{
					OFFSET 7.033936 23.504700 70.088989
					CHANNELS 3 Zrotation Yrotation Xrotation
					JOINT joint_11
					{
						OFFSET 36.629639 112.486816 -14.036987
						CHANNELS 3 Zrotation Yrotation Xrotation
						JOINT joint_12
						{
							OFFSET 41.355225 -7.048523 -266.019897
							CHANNELS 3 Zrotation Yrotation Xrotation
							JOINT joint_13
							{
								OFFSET 5.858887 29.785156 -234.603027
								CHANNELS 3 Zrotation Yrotation Xrotation
								End Site
								{
									OFFSET 0.000000 0.000000 0.000000
								}
							}
						}
					}
				}
			}
		}
	}
	JOINT joint_14
	{
		OFFSET -8.917725 -79.985535 -99.035034
		CHANNELS 3 Zrotation Yrotation Xrotation
		JOINT joint_15
		{
			OFFSET -32.739502 -31.478882 -502.570984
			CHANNELS 3 Zrotation Yrotation Xrotation
			JOINT joint_16
			{
				OFFSET 7.393066 -29.352966 -399.008011
				CHANNELS 3 Zrotation Yrotation Xrotation
				JOINT joint_17
				{
					OFFSET 178.013916 -26.060303 -71.875002
					CHANNELS 3 Zrotation Yrotation Xrotation
					End Site
					{
						OFFSET 0.000000 0.000000 0.000000
					}
				}
			}
		}
	}
	JOINT joint_18
	{
		OFFSET 1.900879 81.159851 -98.481018
		CHANNELS 3 Zrotation Yrotation Xrotation
		JOINT joint_19
		{
			OFFSET -15.120850 31.602051 -503.400024
			CHANNELS 3 Zrotation Yrotation Xrotation
			JOINT joint_20
			{
				OFFSET -16.653076 23.887695 -399.091988
				CHANNELS 3 Zrotation Yrotation Xrotation
				JOINT joint_21
				{
					OFFSET 179.618164 -1.217651 -72.592001
					CHANNELS 3 Zrotation Yrotation Xrotation
					End Site
					{
						OFFSET 0.000000 0.000000 0.000000
					}
				}
			}
		}
	}
}
MOTION
Frames: 10
Frame Time: 0.016667
-2836.072021 649.359558 1093.573975 1.745046 -0.493253 0.976392 2.338104 3.408936 -2.331211 2.432630 -0.705821 0.496778 2.385161 0.716106 -0.320030 0.187276 -2.602512 -1.922234 0.000000 0.000000 0.000000 0.733379 -0.357455 0.247622 0.211628 -0.613194 2.213115 0.005934 -0.467589 -0.696455 0.000000 0.000000 0.000000 -1.292296 0.368912 -1.699603 0.047766 -0.836562 2.529164 -0.637028 -3.957962 -2.439648 0.000000 0.000000 0.000000 0.693715 1.927792 -3.907214 0.156119 3.882075 2.623604 0.668533 -3.516105 -0.246044 0.000000 0.000000 0.000000 0.948545 2.434079 -0.879310 0.927605 1.693378 -1.688498 0.565024 -3.112335 0.206832 0.000000 0.000000 0.000000 
-2831.507080 648.218140 1093.948975 0.832543 0.571100 1.007116 2.154104 2.531393 -2.779920 2.286654 -0.532311 0.602170 2.218402 0.539962 -0.439623 0.152206 -3.272913 -2.073111 0.000000 0.000000 0.000000 0.837093 -0.099046 0.434615 0.203463 -0.331994 2.382760 0.066681 -1.090554 -0.502675 0.000000 0.000000 0.000000 -1.441555 0.562297 -1.195191 -0.215458 -0.498343 2.549114 -0.808264 -5.330171 -2.134877 0.000000 0.000000 0.000000 1.029001 0.625120 -3.915758 0.375658 4.419620 2.608976 0.928702 -3.497575 -0.138928 0.000000 0.000000 0.000000 1.236056 1.658149 -0.836689 1.262161 1.589362 -1.832526 0.909303 -2.842788 0.347292 0.000000 0.000000 0.000000 
-2825.935303 646.554321 1094.571045 -0.388383 1.903941 0.975515 2.111640 1.224857 -3.344562 2.299558 -0.321291 0.796552 2.195624 0.301348 -0.648186 0.116723 -3.869121 -2.176748 0.000000 0.000000 0.000000 0.917576 0.360378 0.842892 0.160540 0.213228 2.433166 0.154354 -2.002605 -0.163517 0.000000 0.000000 0.000000 -1.161120 0.732791 -0.770730 -0.246823 -0.432111 3.170004 -0.938654 -6.292963 -2.349163 0.000000 0.000000 0.000000 1.455550 -1.137442 -3.812589 0.650090 5.308953 2.504176 1.268924 -3.438449 0.006004 0.000000 0.000000 0.000000 1.628480 0.621213 -0.747670 1.725592 1.574333 -1.964755 1.385028 -2.411887 0.541555 0.000000 0.000000 0.000000 
-2819.861572 644.666809 1095.342041 -1.534491 3.118831 0.940831 2.238899 0.106950 -3.920137 2.485274 -0.162194 1.011944 2.344896 0.076665 -0.851864 0.068322 -4.379895 -2.195545 0.000000 0.000000 0.000000 0.885214 1.042809 1.083438 0.108167 0.907269 2.628507 0.262574 -3.175184 0.274899 0.000000 0.000000 0.000000 -0.917091 0.674527 -0.182842 -0.268259 -0.457910 3.553265 -1.083361 -7.240687 -2.926795 0.000000 0.000000 0.000000 1.823442 -2.884098 -3.672786 0.852745 6.552010 2.368939 1.580681 -3.616424 0.104227 0.000000 0.000000 0.000000 1.961181 -0.552842 -0.745370 2.170993 2.188673 -1.884456 1.799921 -2.257950 0.708962 0.000000 0.000000 0.000000 
-2813.779297 642.664551 1096.255005 -2.376929 4.013965 0.952317 2.589776 -0.451086 -4.427262 2.883516 -0.108605 1.168627 2.717360 -0.055249 -1.002134 -0.005167 -4.809913 -2.108427 0.000000 0.000000 0.000000 0.618428 1.964133 0.994972 0.060443 1.684463 3.128326 0.390158 -4.664558 0.787614 0.000000 0.000000 0.000000 -1.072632 0.125416 0.648858 -0.302823 -0.639043 3.301241 -1.218145 -7.937277 -3.906232 0.000000 0.000000 0.000000 2.033869 -4.454184 -3.514238 0.881205 8.334200 2.209920 1.793067 -4.320227 0.084769 0.000000 0.000000 0.000000 2.142736 -1.867886 -0.912429 2.527113 3.836696 -1.448535 2.054412 -2.642208 0.807242 0.000000 0.000000 0.000000 
-2807.499756 640.434204 1097.347046 -3.061250 4.735420 0.982152 3.149100 -0.669851 -4.893283 3.484098 -0.131978 1.283757 3.297573 -0.117743 -1.142976 -0.096957 -5.172768 -1.952760 0.000000 0.000000 0.000000 0.139445 3.094998 0.809071 0.001090 2.591469 3.791697 0.528639 -6.488530 1.358459 0.000000 0.000000 0.000000 -1.479900 -0.830680 1.592008 -0.270474 -1.057871 2.764563 -1.336486 -8.208404 -5.387648 0.000000 0.000000 0.000000 2.140608 -6.023079 -3.286871 0.784767 10.641283 1.970047 1.934262 -5.369514 -0.014810 0.000000 0.000000 0.000000 2.241621 -3.368691 -1.177662 2.856293 6.297705 -0.747435 2.238458 -3.293135 0.873633 0.000000 0.000000 0.000000 
-2800.290771 638.357422 1098.364014 -3.463712 5.133793 1.022799 3.789429 -0.510013 -5.277436 4.152517 -0.208014 1.385619 3.950378 -0.127857 -1.247890 -0.186711 -5.411797 -1.774547 0.000000 0.000000 0.000000 -0.313266 4.366160 0.464547 -0.066518 3.604204 4.567998 0.644231 -8.440892 1.781523 0.000000 0.000000 0.000000 -1.857897 -1.714897 2.805974 -0.688707 -1.108794 1.418065 -1.723864 -10.039129 -6.803443 0.000000 0.000000 0.000000 2.163597 -7.032780 -3.082958 0.642220 12.716222 1.753893 1.991918 -6.324493 -0.134300 0.000000 0.000000 0.000000 2.185916 -4.815828 -1.453020 3.059724 9.437932 0.113624 2.264488 -4.084787 0.873346 0.000000 0.000000 0.000000 
-2791.639404 636.787170 1099.152954 -3.519881 4.991259 1.014725 4.475018 0.178827 -5.419171 4.833533 -0.314691 1.424550 4.627188 -0.067413 -1.281583 -0.269230 -5.497533 -1.559302 0.000000 0.000000 0.000000 -0.571957 5.783977 -0.142034 -0.127151 4.724121 5.568461 0.714306 -10.474497 1.824623 0.000000 0.000000 0.000000 -2.046713 -2.133042 4.334396 -2.180023 -0.305582 -1.159487 -2.779100 -15.745221 -7.600940 0.000000 0.000000 0.000000 2.111018 -6.980029 -2.923931 0.499973 14.043855 1.691879 1.967288 -6.967065 -0.240364 0.000000 0.000000 0.000000 1.890335 -5.973024 -1.647484 3.022864 13.310306 1.144594 2.008702 -4.897377 0.758534 0.000000 0.000000 0.000000 
-2781.821533 635.575867 1099.812012 -3.313437 4.353102 0.891628 5.251686 1.392703 -5.164670 5.584413 -0.460634 1.307990 5.393920 0.066838 -1.244521 -0.357272 -5.468087 -1.259539 0.000000 0.000000 0.000000 -0.747104 7.363961 -0.891895 -0.180621 5.971888 6.805286 0.735841 -12.659918 1.536093 0.000000 0.000000 0.000000 -2.182366 -2.176566 5.549955 -4.657708 0.951492 -4.093037 -4.530850 -24.616888 -7.773369 0.000000 0.000000 0.000000 1.982139 -6.074660 -2.694821 0.339746 14.913198 1.743180 1.875915 -7.437658 -0.347590 0.000000 0.000000 0.000000 1.418332 -6.890321 -1.721029 2.800162 17.897918 2.327318 1.506523 -5.534480 0.547601 0.000000 0.000000 0.000000 
-2770.994141 634.290588 1100.265991 -2.773484 3.811305 0.718386 5.942333 2.396430 -4.668165 6.276755 -0.590482 1.146734 6.109895 0.190931 -1.186866 -0.430019 -5.340297 -0.950848 0.000000 0.000000 0.000000 -0.884929 8.940201 -1.528283 -0.251714 7.306413 7.776828 0.713769 -14.674702 1.343784 0.000000 0.000000 0.000000 -2.130925 -2.105946 6.163403 -7.089421 2.073857 -6.075414 -6.378807 -32.619960 -8.311905 0.000000 0.000000 0.000000 1.817387 -5.044620 -2.430136 0.167459 15.512294 1.828775 1.755452 -7.779092 -0.447515 0.000000 0.000000 0.000000 0.961117 -8.015080 -1.678766 2.585760 22.644630 3.307764 0.987176 -5.997569 0.335770 0.000000 0.000000 0.000000 
